<mxfile host="Electron" modified="2024-05-18T11:14:46.063Z" agent="Mozilla/5.0 (Macintosh; Intel Mac OS X 10_15_7) AppleWebKit/537.36 (KHTML, like Gecko) draw.io/24.4.0 Chrome/120.0.6099.109 Electron/28.1.0 Safari/537.36" etag="-KeUDSxS4kR5oKqK-aab" version="24.4.0" type="device">
  <diagram name="페이지-1" id="QzgexUtv2PfRkyzffOc2">
    <mxGraphModel dx="1114" dy="894" grid="1" gridSize="10" guides="1" tooltips="1" connect="1" arrows="1" fold="1" page="1" pageScale="1" pageWidth="827" pageHeight="1169" math="0" shadow="0">
      <root>
        <mxCell id="0" />
        <mxCell id="1" parent="0" />
        <mxCell id="W3QJQycQsu39wAAXIeET-1" value="" style="shape=mxgraph.cisco.computers_and_peripherals.web_browser;html=1;pointerEvents=1;dashed=0;fillColor=#036897;strokeColor=#ffffff;strokeWidth=2;verticalLabelPosition=bottom;verticalAlign=top;align=center;outlineConnect=0;" vertex="1" parent="1">
          <mxGeometry x="50" y="188" width="62" height="64" as="geometry" />
        </mxCell>
        <mxCell id="W3QJQycQsu39wAAXIeET-3" value="표현" style="rounded=0;whiteSpace=wrap;html=1;verticalAlign=top;fontStyle=1" vertex="1" parent="1">
          <mxGeometry x="190" y="120" width="130" height="180" as="geometry" />
        </mxCell>
        <mxCell id="W3QJQycQsu39wAAXIeET-4" value="객체 변환&lt;div&gt;&lt;br&gt;&lt;/div&gt;&lt;div&gt;&lt;br&gt;&lt;/div&gt;&lt;div&gt;&lt;b&gt;&lt;font style=&quot;font-size: 14px;&quot;&gt;컨트롤러&lt;/font&gt;&lt;/b&gt;&lt;/div&gt;&lt;div&gt;&lt;br&gt;&lt;/div&gt;&lt;div&gt;JSON 변환&lt;/div&gt;" style="rounded=1;whiteSpace=wrap;html=1;fillColor=#dae8fc;strokeColor=#6c8ebf;" vertex="1" parent="1">
          <mxGeometry x="210" y="160" width="90" height="120" as="geometry" />
        </mxCell>
        <mxCell id="W3QJQycQsu39wAAXIeET-5" value="응용" style="rounded=0;whiteSpace=wrap;html=1;verticalAlign=top;fontStyle=1" vertex="1" parent="1">
          <mxGeometry x="420" y="120" width="130" height="180" as="geometry" />
        </mxCell>
        <mxCell id="W3QJQycQsu39wAAXIeET-6" value="서비스" style="rounded=1;whiteSpace=wrap;html=1;fontStyle=1;fontSize=14;fillColor=#dae8fc;strokeColor=#6c8ebf;" vertex="1" parent="1">
          <mxGeometry x="440" y="160" width="90" height="120" as="geometry" />
        </mxCell>
        <mxCell id="W3QJQycQsu39wAAXIeET-7" value="도메인" style="rounded=0;whiteSpace=wrap;html=1;verticalAlign=top;fontStyle=1" vertex="1" parent="1">
          <mxGeometry x="579" y="120" width="130" height="180" as="geometry" />
        </mxCell>
        <mxCell id="W3QJQycQsu39wAAXIeET-8" value="엔티티" style="rounded=1;whiteSpace=wrap;html=1;fontStyle=1;fontSize=14;fillColor=#dae8fc;strokeColor=#6c8ebf;" vertex="1" parent="1">
          <mxGeometry x="599" y="163" width="90" height="50" as="geometry" />
        </mxCell>
        <mxCell id="W3QJQycQsu39wAAXIeET-9" value="밸류" style="rounded=1;whiteSpace=wrap;html=1;fontStyle=1;fontSize=14;fillColor=#dae8fc;strokeColor=#6c8ebf;" vertex="1" parent="1">
          <mxGeometry x="599" y="224" width="90" height="50" as="geometry" />
        </mxCell>
        <mxCell id="W3QJQycQsu39wAAXIeET-30" style="edgeStyle=orthogonalEdgeStyle;rounded=0;orthogonalLoop=1;jettySize=auto;html=1;exitX=1;exitY=0.25;exitDx=0;exitDy=0;entryX=0;entryY=0.5;entryDx=0;entryDy=0;endArrow=block;endFill=1;" edge="1" parent="1" source="W3QJQycQsu39wAAXIeET-10" target="W3QJQycQsu39wAAXIeET-13">
          <mxGeometry relative="1" as="geometry" />
        </mxCell>
        <mxCell id="W3QJQycQsu39wAAXIeET-31" style="edgeStyle=orthogonalEdgeStyle;rounded=0;orthogonalLoop=1;jettySize=auto;html=1;entryX=0;entryY=0.5;entryDx=0;entryDy=0;endArrow=block;endFill=1;" edge="1" parent="1" source="W3QJQycQsu39wAAXIeET-10" target="W3QJQycQsu39wAAXIeET-14">
          <mxGeometry relative="1" as="geometry" />
        </mxCell>
        <mxCell id="W3QJQycQsu39wAAXIeET-32" style="edgeStyle=orthogonalEdgeStyle;rounded=0;orthogonalLoop=1;jettySize=auto;html=1;exitX=1;exitY=0.75;exitDx=0;exitDy=0;endArrow=block;endFill=1;" edge="1" parent="1" source="W3QJQycQsu39wAAXIeET-10" target="W3QJQycQsu39wAAXIeET-15">
          <mxGeometry relative="1" as="geometry" />
        </mxCell>
        <mxCell id="W3QJQycQsu39wAAXIeET-10" value="인프라스트럭처" style="rounded=0;whiteSpace=wrap;html=1;verticalAlign=top;fontStyle=1" vertex="1" parent="1">
          <mxGeometry x="752" y="120" width="130" height="180" as="geometry" />
        </mxCell>
        <mxCell id="W3QJQycQsu39wAAXIeET-13" value="DB" style="rounded=1;whiteSpace=wrap;html=1;fillColor=#dae8fc;strokeColor=#6c8ebf;" vertex="1" parent="1">
          <mxGeometry x="925" y="145" width="70" height="40" as="geometry" />
        </mxCell>
        <mxCell id="W3QJQycQsu39wAAXIeET-14" value="SMTP" style="rounded=1;whiteSpace=wrap;html=1;fillColor=#dae8fc;strokeColor=#6c8ebf;" vertex="1" parent="1">
          <mxGeometry x="925" y="190" width="70" height="40" as="geometry" />
        </mxCell>
        <mxCell id="W3QJQycQsu39wAAXIeET-15" value="Kafka" style="rounded=1;whiteSpace=wrap;html=1;fillColor=#dae8fc;strokeColor=#6c8ebf;" vertex="1" parent="1">
          <mxGeometry x="925" y="235" width="70" height="40" as="geometry" />
        </mxCell>
        <mxCell id="W3QJQycQsu39wAAXIeET-16" value="" style="endArrow=block;html=1;rounded=0;entryX=0;entryY=0.25;entryDx=0;entryDy=0;endFill=1;" edge="1" parent="1">
          <mxGeometry width="50" height="50" relative="1" as="geometry">
            <mxPoint x="112" y="191" as="sourcePoint" />
            <mxPoint x="210" y="191" as="targetPoint" />
          </mxGeometry>
        </mxCell>
        <mxCell id="W3QJQycQsu39wAAXIeET-18" value="HTTP 요청" style="edgeLabel;html=1;align=center;verticalAlign=middle;resizable=0;points=[];" vertex="1" connectable="0" parent="W3QJQycQsu39wAAXIeET-16">
          <mxGeometry x="-0.6429" y="1" relative="1" as="geometry">
            <mxPoint x="18" y="-11" as="offset" />
          </mxGeometry>
        </mxCell>
        <mxCell id="W3QJQycQsu39wAAXIeET-17" value="" style="endArrow=none;html=1;rounded=0;entryX=0;entryY=0.25;entryDx=0;entryDy=0;endFill=0;startArrow=block;startFill=1;" edge="1" parent="1">
          <mxGeometry width="50" height="50" relative="1" as="geometry">
            <mxPoint x="112" y="248.5" as="sourcePoint" />
            <mxPoint x="210" y="248.5" as="targetPoint" />
          </mxGeometry>
        </mxCell>
        <mxCell id="W3QJQycQsu39wAAXIeET-19" value="HTTP 응답" style="edgeLabel;html=1;align=center;verticalAlign=middle;resizable=0;points=[];" vertex="1" connectable="0" parent="W3QJQycQsu39wAAXIeET-17">
          <mxGeometry x="-0.5" y="3" relative="1" as="geometry">
            <mxPoint x="8" y="13" as="offset" />
          </mxGeometry>
        </mxCell>
        <mxCell id="W3QJQycQsu39wAAXIeET-20" value="" style="endArrow=block;html=1;rounded=0;entryX=0;entryY=0.25;entryDx=0;entryDy=0;endFill=1;" edge="1" parent="1" target="W3QJQycQsu39wAAXIeET-6">
          <mxGeometry width="50" height="50" relative="1" as="geometry">
            <mxPoint x="300" y="190" as="sourcePoint" />
            <mxPoint x="398" y="190" as="targetPoint" />
          </mxGeometry>
        </mxCell>
        <mxCell id="W3QJQycQsu39wAAXIeET-21" value="메서드 호출인자 전달" style="edgeLabel;html=1;align=center;verticalAlign=middle;resizable=0;points=[];" vertex="1" connectable="0" parent="W3QJQycQsu39wAAXIeET-20">
          <mxGeometry x="-0.6429" y="1" relative="1" as="geometry">
            <mxPoint x="45" y="-9" as="offset" />
          </mxGeometry>
        </mxCell>
        <mxCell id="W3QJQycQsu39wAAXIeET-22" value="" style="endArrow=none;html=1;rounded=0;entryX=0;entryY=0.25;entryDx=0;entryDy=0;endFill=0;startArrow=block;startFill=1;" edge="1" parent="1">
          <mxGeometry width="50" height="50" relative="1" as="geometry">
            <mxPoint x="300" y="248.5" as="sourcePoint" />
            <mxPoint x="440" y="248.5" as="targetPoint" />
          </mxGeometry>
        </mxCell>
        <mxCell id="W3QJQycQsu39wAAXIeET-23" value="메서드 리턴" style="edgeLabel;html=1;align=center;verticalAlign=middle;resizable=0;points=[];" vertex="1" connectable="0" parent="W3QJQycQsu39wAAXIeET-22">
          <mxGeometry x="-0.6429" y="1" relative="1" as="geometry">
            <mxPoint x="45" y="10" as="offset" />
          </mxGeometry>
        </mxCell>
        <mxCell id="W3QJQycQsu39wAAXIeET-24" value="" style="endArrow=block;html=1;rounded=0;endFill=1;dashed=1;entryX=1;entryY=0.25;entryDx=0;entryDy=0;" edge="1" parent="1" target="W3QJQycQsu39wAAXIeET-4">
          <mxGeometry width="50" height="50" relative="1" as="geometry">
            <mxPoint x="210" y="190" as="sourcePoint" />
            <mxPoint x="268" y="190" as="targetPoint" />
          </mxGeometry>
        </mxCell>
        <mxCell id="W3QJQycQsu39wAAXIeET-26" value="" style="endArrow=none;html=1;rounded=0;endFill=0;dashed=1;entryX=1;entryY=0.25;entryDx=0;entryDy=0;startArrow=block;startFill=1;" edge="1" parent="1">
          <mxGeometry width="50" height="50" relative="1" as="geometry">
            <mxPoint x="210" y="248.5" as="sourcePoint" />
            <mxPoint x="300" y="248.5" as="targetPoint" />
          </mxGeometry>
        </mxCell>
        <mxCell id="W3QJQycQsu39wAAXIeET-27" value="" style="endArrow=block;html=1;rounded=0;entryX=0;entryY=0.5;entryDx=0;entryDy=0;endFill=1;" edge="1" parent="1" target="W3QJQycQsu39wAAXIeET-8">
          <mxGeometry width="50" height="50" relative="1" as="geometry">
            <mxPoint x="530" y="188" as="sourcePoint" />
            <mxPoint x="670" y="188" as="targetPoint" />
          </mxGeometry>
        </mxCell>
        <mxCell id="W3QJQycQsu39wAAXIeET-29" value="" style="endArrow=block;html=1;rounded=0;entryX=0;entryY=0.5;entryDx=0;entryDy=0;endFill=1;" edge="1" parent="1" target="W3QJQycQsu39wAAXIeET-9">
          <mxGeometry width="50" height="50" relative="1" as="geometry">
            <mxPoint x="531" y="249" as="sourcePoint" />
            <mxPoint x="623" y="242" as="targetPoint" />
          </mxGeometry>
        </mxCell>
        <mxCell id="W3QJQycQsu39wAAXIeET-33" value="" style="rounded=1;whiteSpace=wrap;html=1;fillColor=#f5f5f5;fontColor=#333333;strokeColor=#666666;opacity=80;" vertex="1" parent="1">
          <mxGeometry x="560" y="65" width="480" height="290" as="geometry" />
        </mxCell>
      </root>
    </mxGraphModel>
  </diagram>
</mxfile>
